<?xml version="1.0" standalone="no"?>
<!DOCTYPE svg PUBLIC "-//W3C//DTD SVG 20010904//EN"
 "http://www.w3.org/TR/2001/REC-SVG-20010904/DTD/svg10.dtd">
<svg version="1.0" xmlns="http://www.w3.org/2000/svg"
 width="233.000000pt" height="85.000000pt" viewBox="0 0 233.000000 85.000000"
 preserveAspectRatio="xMidYMid meet">

<g transform="translate(0.000000,85.000000) scale(0.100000,-0.100000)"
fill="#000000" stroke="none">
<path d="M406 741 c-16 -17 -11 -26 113 -187 l130 -169 1 -147 0 -148 65 0 65
0 0 148 0 147 140 180 c77 99 140 183 140 188 0 4 -37 7 -82 7 l-83 0 -72 -95
-73 -95 0 -75 0 -75 -35 0 -35 0 0 75 0 75 -72 95 -72 95 -57 0 c-42 0 -60 -5
-73 -19z m164 -82 c71 -96 80 -112 80 -152 0 -28 -4 -38 -14 -35 -15 3 -186
223 -186 239 0 5 17 9 38 9 34 0 41 -6 82 -61z m410 50 c0 -17 -174 -238 -187
-239 -19 0 -16 70 5 102 9 14 37 54 62 87 41 55 48 60 83 61 20 0 37 -5 37
-11z m-230 -455 l0 -125 -32 3 -33 3 -3 109 c-1 61 0 116 2 123 3 7 19 13 36
13 l30 0 0 -126z"/>
<path d="M1335 748 c-2 -7 -6 -31 -7 -53 l-3 -40 -47 -3 -48 -3 0 -95 0 -94
50 0 50 0 0 -35 0 -35 -50 0 -50 0 0 -95 0 -95 49 0 50 0 3 -53 3 -52 258 -3
257 -2 0 75 0 75 -240 0 -240 0 0 55 0 55 173 2 172 3 3 73 3 72 -176 0 -176
0 3 58 3 57 238 3 237 2 0 70 0 70 -255 0 c-196 0 -257 -3 -260 -12z m483 -60
l-3 -33 -220 0 -220 0 -3 33 -3 32 226 0 226 0 -3 -32z m-490 -131 l3 -58 -33
3 c-31 3 -33 5 -36 46 -4 49 11 74 42 70 18 -3 21 -11 24 -61z m357 -132 l0
-30 -155 0 -155 0 -3 33 -3 33 158 -3 158 -3 0 -30z m-355 -131 l0 -55 -32 3
c-30 3 -33 6 -36 42 -5 53 3 66 38 66 30 0 30 0 30 -56z m488 -131 l3 -33
-225 0 -226 0 0 28 c0 16 3 32 7 36 4 3 104 5 222 4 l216 -3 3 -32z"/>
</g>
</svg>
